<?xml version="1.0" encoding="UTF-8" standalone="no"?><!DOCTYPE svg PUBLIC "-//W3C//DTD SVG 1.1//EN" "http://www.w3.org/Graphics/SVG/1.1/DTD/svg11.dtd"><svg width="100%" height="100%" viewBox="0 0 135 42" version="1.1" xmlns="http://www.w3.org/2000/svg" xmlns:xlink="http://www.w3.org/1999/xlink" xml:space="preserve" style="fill-rule:evenodd;clip-rule:evenodd;stroke-linejoin:round;stroke-miterlimit:1.41421;"><g><path d="M37,21c0,8.837 -7.163,16 -16,16c-8.837,0 -16,-7.163 -16,-16c0,-8.837 7.163,-16 16,-16c8.837,0 16,7.163 16,16" style="fill:#9c0;fill-rule:nonzero;"/><path d="M50.471,32.041l0,-17.842l-6.372,0l0,-3.633l17.066,0l0,3.633l-6.358,0l0,17.842l-4.336,0Z" style="fill:#333;fill-rule:nonzero;"/><rect x="63.831" y="10.566" width="4.336" height="21.475" style="fill:#333;fill-rule:nonzero;"/><path d="M72.298,32.041l0,-21.475l15.922,0l0,3.633l-11.586,0l0,4.761l10.781,0l0,3.618l-10.781,0l0,5.844l11.997,0l0,3.619l-16.333,0Z" style="fill:#333;fill-rule:nonzero;"/><path d="M91.209,25.053l4.218,-0.41c0.254,1.416 0.77,2.456 1.546,3.12c0.776,0.664 1.824,0.996 3.142,0.996c1.396,0 2.449,-0.295 3.157,-0.886c0.708,-0.591 1.062,-1.282 1.062,-2.073c0,-0.507 -0.149,-0.94 -0.447,-1.296c-0.298,-0.356 -0.818,-0.667 -1.56,-0.93c-0.508,-0.176 -1.665,-0.488 -3.472,-0.938c-2.324,-0.576 -3.955,-1.284 -4.892,-2.124c-1.319,-1.181 -1.978,-2.622 -1.978,-4.321c0,-1.094 0.31,-2.117 0.93,-3.069c0.62,-0.952 1.514,-1.677 2.681,-2.175c1.167,-0.498 2.576,-0.747 4.226,-0.747c2.695,0 4.724,0.591 6.086,1.772c1.363,1.182 2.078,2.759 2.146,4.732l-4.335,0.19c-0.186,-1.103 -0.584,-1.897 -1.194,-2.38c-0.611,-0.484 -1.526,-0.725 -2.747,-0.725c-1.26,0 -2.246,0.258 -2.959,0.776c-0.459,0.332 -0.688,0.776 -0.688,1.333c0,0.508 0.214,0.942 0.644,1.304c0.547,0.459 1.875,0.937 3.985,1.435c2.109,0.498 3.669,1.013 4.68,1.546c1.01,0.532 1.801,1.259 2.373,2.182c0.571,0.923 0.857,2.063 0.857,3.421c0,1.23 -0.342,2.383 -1.026,3.457c-0.683,1.074 -1.65,1.872 -2.9,2.395c-1.25,0.522 -2.808,0.783 -4.673,0.783c-2.715,0 -4.8,-0.627 -6.255,-1.882c-1.455,-1.255 -2.324,-3.083 -2.607,-5.486Z" style="fill:#333;fill-rule:nonzero;"/><path d="M112.288,10.566l4.336,0l0,11.631c0,1.846 0.053,3.042 0.161,3.589c0.185,0.879 0.627,1.584 1.326,2.116c0.698,0.533 1.652,0.799 2.863,0.799c1.231,0 2.159,-0.252 2.784,-0.755c0.625,-0.503 1.001,-1.12 1.127,-1.853c0.127,-0.732 0.191,-1.948 0.191,-3.647l0,-11.88l4.336,0l0,11.279c0,2.578 -0.117,4.4 -0.352,5.464c-0.234,1.065 -0.666,1.963 -1.296,2.695c-0.63,0.733 -1.472,1.316 -2.527,1.751c-1.055,0.435 -2.432,0.652 -4.131,0.652c-2.051,0 -3.606,-0.237 -4.665,-0.711c-1.06,-0.473 -1.897,-1.089 -2.513,-1.845c-0.615,-0.757 -1.02,-1.551 -1.215,-2.381c-0.284,-1.23 -0.425,-3.047 -0.425,-5.449l0,-11.455Z" style="fill:#333;fill-rule:nonzero;"/></g><clipPath id="_clip1"><path d="M5,21c0,8.837 7.163,16 16,16c8.837,0 16,-7.163 16,-16c0,-8.837 -7.163,-16 -16,-16c-8.837,0 -16,7.163 -16,16"/></clipPath><g clip-path="url(#_clip1)"><rect x="5" y="5" width="32" height="32" style="fill:url(#_Linear2);"/></g><g><path d="M21,19c1.105,0 2,-0.895 2,-2c0,-1.105 -0.895,-2 -2,-2c-1.105,0 -2,0.895 -2,2c0,1.105 0.895,2 2,2" style="fill:#fff;fill-rule:nonzero;"/><rect x="20" y="21" width="2" height="6" style="fill:#fff;"/><path d="M27,9l-12,0c-1.1,0 -2,0.9 -2,2l0,3l-1,0c-0.552,0 -1,0.448 -1,1c0,0.552 0.448,1 1,1l1,0l0,4l-1,0c-0.552,0 -1,0.448 -1,1c0,0.552 0.448,1 1,1l1,0l0,4l-1,0c-0.552,0 -1,0.448 -1,1c0,0.552 0.448,1 1,1l1,0l0,3c0,1.1 0.9,2 2,2l12,0c1.1,0 2,-0.9 2,-2l0,-20c0,-1.1 -0.9,-2 -2,-2m0,22l-12,0l0,-3l1,0c0.552,0 1,-0.448 1,-1c0,-0.552 -0.448,-1 -1,-1l-1,0l0,-4l1,0c0.552,0 1,-0.448 1,-1c0,-0.552 -0.448,-1 -1,-1l-1,0l0,-4l1,0c0.552,0 1,-0.448 1,-1c0,-0.552 -0.448,-1 -1,-1l-1,0l0,-3l12,0l0,20Z" style="fill:#fff;fill-rule:nonzero;"/></g><defs><linearGradient id="_Linear2" x1="0" y1="0" x2="1" y2="0" gradientUnits="userSpaceOnUse" gradientTransform="matrix(1.95943e-15,-32,32,1.95943e-15,21,37)"><stop offset="0" style="stop-color:#7aa300;stop-opacity:1"/><stop offset="0.5" style="stop-color:#9c0;stop-opacity:1"/><stop offset="1" style="stop-color:#add633;stop-opacity:1"/></linearGradient></defs></svg>